{
	"patcher" : 	{
		"fileversion" : 1,
		"appversion" : 		{
			"major" : 8,
			"minor" : 1,
			"revision" : 5,
			"architecture" : "x64",
			"modernui" : 1
		}
,
		"classnamespace" : "box",
		"rect" : [ 84.0, 129.0, 902.0, 458.0 ],
		"bglocked" : 0,
		"openinpresentation" : 0,
		"default_fontsize" : 12.0,
		"default_fontface" : 0,
		"default_fontname" : "Arial",
		"gridonopen" : 1,
		"gridsize" : [ 15.0, 15.0 ],
		"gridsnaponopen" : 1,
		"objectsnaponopen" : 1,
		"statusbarvisible" : 2,
		"toolbarvisible" : 1,
		"lefttoolbarpinned" : 0,
		"toptoolbarpinned" : 0,
		"righttoolbarpinned" : 0,
		"bottomtoolbarpinned" : 0,
		"toolbars_unpinned_last_save" : 0,
		"tallnewobj" : 0,
		"boxanimatetime" : 200,
		"enablehscroll" : 1,
		"enablevscroll" : 1,
		"devicewidth" : 0.0,
		"description" : "",
		"digest" : "",
		"tags" : "",
		"style" : "",
		"subpatcher_template" : "",
		"assistshowspatchername" : 0,
		"boxes" : [ 			{
				"box" : 				{
					"bgmode" : 1,
					"border" : 0,
					"clickthrough" : 0,
					"embed" : 1,
					"enablehscroll" : 0,
					"enablevscroll" : 0,
					"id" : "obj-1",
					"lockeddragscroll" : 0,
					"maxclass" : "bpatcher",
					"name" : "convert_notes_to_data.maxpat",
					"numinlets" : 1,
					"numoutlets" : 1,
					"offset" : [ -1.0, -3.0 ],
					"outlettype" : [ "" ],
					"patcher" : 					{
						"fileversion" : 1,
						"appversion" : 						{
							"major" : 8,
							"minor" : 1,
							"revision" : 5,
							"architecture" : "x64",
							"modernui" : 1
						}
,
						"classnamespace" : "box",
						"rect" : [ 59.0, 104.0, 911.0, 435.0 ],
						"bglocked" : 0,
						"openinpresentation" : 1,
						"default_fontsize" : 12.0,
						"default_fontface" : 0,
						"default_fontname" : "Arial",
						"gridonopen" : 1,
						"gridsize" : [ 15.0, 15.0 ],
						"gridsnaponopen" : 1,
						"objectsnaponopen" : 1,
						"statusbarvisible" : 2,
						"toolbarvisible" : 1,
						"lefttoolbarpinned" : 0,
						"toptoolbarpinned" : 0,
						"righttoolbarpinned" : 0,
						"bottomtoolbarpinned" : 0,
						"toolbars_unpinned_last_save" : 0,
						"tallnewobj" : 0,
						"boxanimatetime" : 200,
						"enablehscroll" : 1,
						"enablevscroll" : 1,
						"devicewidth" : 0.0,
						"description" : "",
						"digest" : "",
						"tags" : "",
						"style" : "",
						"subpatcher_template" : "",
						"assistshowspatchername" : 0,
						"boxes" : [ 							{
								"box" : 								{
									"id" : "obj-4",
									"maxclass" : "comment",
									"numinlets" : 1,
									"numoutlets" : 0,
									"patching_rect" : [ 316.0, 139.0, 61.0, 20.0 ],
									"presentation" : 1,
									"presentation_rect" : [ 159.0, 12.5, 38.0, 20.0 ],
									"text" : "Value",
									"textcolor" : [ 1.0, 1.0, 1.0, 1.0 ]
								}

							}
, 							{
								"box" : 								{
									"bgcolor" : [ 0.07058823529, 0.3764705882, 0.5215686275, 1.0 ],
									"id" : "obj-2",
									"maxclass" : "number",
									"numinlets" : 1,
									"numoutlets" : 2,
									"outlettype" : [ "", "bang" ],
									"parameter_enable" : 1,
									"patching_rect" : [ 471.0, 178.0, 50.0, 22.0 ],
									"presentation" : 1,
									"presentation_rect" : [ 104.0, 11.5, 50.0, 22.0 ],
									"saved_attribute_attributes" : 									{
										"valueof" : 										{
											"parameter_initial" : [ 60 ],
											"parameter_initial_enable" : 1,
											"parameter_invisible" : 1,
											"parameter_longname" : "number[1]",
											"parameter_shortname" : "number[1]",
											"parameter_type" : 3
										}

									}
,
									"triangle" : 0,
									"varname" : "number[1]"
								}

							}
, 							{
								"box" : 								{
									"comment" : "Vizzie data output",
									"id" : "obj-6",
									"index" : 1,
									"maxclass" : "outlet",
									"numinlets" : 1,
									"numoutlets" : 0,
									"patching_rect" : [ 414.0, 285.0, 30.0, 30.0 ]
								}

							}
, 							{
								"box" : 								{
									"id" : "obj-5",
									"maxclass" : "comment",
									"numinlets" : 1,
									"numoutlets" : 0,
									"patching_rect" : [ 316.0, 163.0, 67.0, 20.0 ],
									"presentation" : 1,
									"presentation_rect" : [ 253.0, 12.5, 67.0, 20.0 ],
									"text" : "Vizzie data",
									"textcolor" : [ 1.0, 1.0, 1.0, 1.0 ]
								}

							}
, 							{
								"box" : 								{
									"id" : "obj-3",
									"maxclass" : "comment",
									"numinlets" : 1,
									"numoutlets" : 0,
									"patching_rect" : [ 316.0, 115.0, 61.0, 20.0 ],
									"presentation" : 1,
									"presentation_rect" : [ 63.0, 12.5, 34.0, 20.0 ],
									"text" : "MIDI",
									"textcolor" : [ 1.0, 1.0, 1.0, 1.0 ]
								}

							}
, 							{
								"box" : 								{
									"annotation" : "MIDI note number input",
									"comment" : "Vizzie data input",
									"id" : "obj-1",
									"index" : 1,
									"maxclass" : "inlet",
									"numinlets" : 0,
									"numoutlets" : 1,
									"outlettype" : [ "" ],
									"patching_rect" : [ 414.0, 105.0, 30.0, 30.0 ]
								}

							}
, 							{
								"box" : 								{
									"id" : "obj-8",
									"maxclass" : "newobj",
									"numinlets" : 6,
									"numoutlets" : 1,
									"outlettype" : [ "" ],
									"patching_rect" : [ 414.0, 139.0, 100.0, 22.0 ],
									"text" : "scale 0. 1. 0 127"
								}

							}
, 							{
								"box" : 								{
									"bgcolor" : [ 0.07058823529, 0.3764705882, 0.5215686275, 1.0 ],
									"format" : 6,
									"id" : "obj-33",
									"maxclass" : "flonum",
									"numinlets" : 1,
									"numoutlets" : 2,
									"outlettype" : [ "", "bang" ],
									"parameter_enable" : 0,
									"patching_rect" : [ 414.0, 252.0, 50.0, 22.0 ],
									"presentation" : 1,
									"presentation_rect" : [ 201.0, 11.5, 50.0, 22.0 ],
									"triangle" : 0
								}

							}
, 							{
								"box" : 								{
									"bgcolor" : [ 0.07058823529, 0.3764705882, 0.5215686275, 1.0 ],
									"format" : 4,
									"id" : "obj-31",
									"maxclass" : "number",
									"numinlets" : 1,
									"numoutlets" : 2,
									"outlettype" : [ "", "bang" ],
									"parameter_enable" : 1,
									"patching_rect" : [ 414.0, 178.0, 50.0, 22.0 ],
									"presentation" : 1,
									"presentation_rect" : [ 11.0, 11.5, 50.0, 22.0 ],
									"saved_attribute_attributes" : 									{
										"valueof" : 										{
											"parameter_initial" : [ 60 ],
											"parameter_initial_enable" : 1,
											"parameter_invisible" : 1,
											"parameter_longname" : "number",
											"parameter_shortname" : "number",
											"parameter_type" : 3
										}

									}
,
									"triangle" : 0,
									"varname" : "number"
								}

							}
, 							{
								"box" : 								{
									"id" : "obj-29",
									"maxclass" : "newobj",
									"numinlets" : 6,
									"numoutlets" : 1,
									"outlettype" : [ "" ],
									"patching_rect" : [ 414.0, 221.0, 100.0, 22.0 ],
									"text" : "scale 0 127 0. 1."
								}

							}
 ],
						"lines" : [ 							{
								"patchline" : 								{
									"destination" : [ "obj-8", 0 ],
									"source" : [ "obj-1", 0 ]
								}

							}
, 							{
								"patchline" : 								{
									"destination" : [ "obj-29", 0 ],
									"midpoints" : [ 480.5, 210.0, 423.5, 210.0 ],
									"source" : [ "obj-2", 0 ]
								}

							}
, 							{
								"patchline" : 								{
									"destination" : [ "obj-33", 0 ],
									"source" : [ "obj-29", 0 ]
								}

							}
, 							{
								"patchline" : 								{
									"destination" : [ "obj-29", 0 ],
									"midpoints" : [ 423.5, 210.0, 423.5, 210.0 ],
									"source" : [ "obj-31", 0 ]
								}

							}
, 							{
								"patchline" : 								{
									"destination" : [ "obj-6", 0 ],
									"source" : [ "obj-33", 0 ]
								}

							}
, 							{
								"patchline" : 								{
									"destination" : [ "obj-2", 0 ],
									"midpoints" : [ 423.5, 169.0, 480.5, 169.0 ],
									"order" : 0,
									"source" : [ "obj-8", 0 ]
								}

							}
, 							{
								"patchline" : 								{
									"destination" : [ "obj-31", 0 ],
									"midpoints" : [ 423.5, 169.0, 423.5, 169.0 ],
									"order" : 1,
									"source" : [ "obj-8", 0 ]
								}

							}
 ],
						"bgcolor" : [ 0.0, 0.0, 0.0, 1.0 ],
						"editing_bgcolor" : [ 1.0, 1.0, 1.0, 1.0 ]
					}
,
					"patching_rect" : [ 40.0, 33.129999999999995, 330.0, 40.0 ],
					"viewvisibility" : 1
				}

			}
 ],
		"lines" : [  ],
		"parameters" : 		{
			"obj-1::obj-2" : [ "number[1]", "number[1]", 0 ],
			"obj-1::obj-31" : [ "number", "number", 0 ],
			"parameterbanks" : 			{

			}
,
			"inherited_shortname" : 1
		}
,
		"dependency_cache" : [  ],
		"autosave" : 0,
		"bgcolor" : [ 1.0, 1.0, 1.0, 1.0 ]
	}

}
